<?xml version="1.0" encoding="utf-8"?>
<!-- Generator: Adobe Illustrator 25.4.1, SVG Export Plug-In . SVG Version: 6.00 Build 0)  -->
<svg version="1.1" id="Layer_1" xmlns="http://www.w3.org/2000/svg" xmlns:xlink="http://www.w3.org/1999/xlink" x="0px" y="0px"
	 viewBox="0 0 1564.1 432" style="enable-background:new 0 0 1564.1 432;" xml:space="preserve">
<style type="text/css">
	.st0{fill:#7D7D7D;}
	.st1{fill:#FFFFFF;stroke:#FFFFFF;stroke-width:14;stroke-miterlimit:10;}
	.st2{fill:#FFFFFF;}
	.st3{fill:none;stroke:#FFFFFF;stroke-width:6;stroke-miterlimit:10;}
</style>
<g>
	<path class="st0" d="M1535.6,426.5H34.1c-9.4,0-17-7.6-17-17V36.6c0-9.4,7.6-17,17-17h1501.5c9.4,0,17,7.6,17,17v372.9
		C1552.6,418.8,1545,426.5,1535.6,426.5z M34.1,29.6c-3.9,0-7,3.1-7,7v372.9c0,3.9,3.1,7,7,7h1501.5c3.9,0,7-3.1,7-7V36.6
		c0-3.9-3.1-7-7-7H34.1z"/>
</g>
<g>
	<path class="st1" d="M321.3,323.5c-0.4-2.4-1.2-4.8-2.1-7.1c-0.7-1.9-1.9-3.7-2.8-5.6c-4.9-10.3-9.8-20.5-14.7-30.8
		c-3.5-7.4-7.1-14.8-10.6-22.2c-4.1-8.5-8.1-16.9-12.2-25.4c-4.5-9.3-9-18.5-13.4-27.7c-3-6.3-6.1-12.6-9-19
		c-3.3-7.2-6.5-14.5-9.6-21.9c-2.5-6-4.4-12.3-5.5-18.7c-0.7-3.8-1.1-7.7-1.5-11.6c-0.5-6.1-1.1-12.2-1.2-18.3
		c-0.2-9.2-0.4-18.3,0.3-27.5c0.2-2.4,0.4-4.9,0.6-7c1.7-1.5,3.3-2.6,4.6-4c3.7-3.8,3.7-9.9-0.5-13.4c-2.1-1.8-4.6-2.9-7.1-3.8
		c-5.8-1.8-11.8-2.8-17.8-3.4c-2.7-0.3-5.4-0.4-8.1-0.6c-3.6-0.3-7.1-0.8-10.7-0.8c-9.6,0-19.1-0.4-28.7,0.2
		c-5.9,0.4-11.7,0.8-17.6,1.5c-5.2,0.6-10.4,1.6-15.4,3c-2.3,0.6-4.4,1.7-6.4,3.2c-4.4,3.4-4.8,10-0.6,13.8c1.3,1.2,3,2.1,4.9,3.4
		c0.2,4,0.7,8.3,0.7,12.6c0.1,8.2,0.3,16.4-0.3,24.6c-0.2,3.2-0.4,6.4-0.5,9.5c-0.2,5.3-0.7,10.5-1.5,15.7c-0.7,4.4-1.6,8.7-2.9,13
		c-2.3,7.7-5.3,15.2-8.6,22.5c-5,11.4-10.4,22.6-15.6,33.8c-3.3,7.1-6.7,14.1-10,21.2c-4.4,9.5-8.8,19.1-13.2,28.6
		c-2.6,5.6-5.1,11.1-7.7,16.7c-3.9,8.5-7.9,17.1-11.7,25.6c-2.1,4.6-4.2,9.1-5.8,13.9c-2.2,6.8-2.7,13.7-1.6,20.7
		c0.8,5.1,3.1,9.7,6,13.9c5.2,7.6,12.3,13.1,20.3,17.4c7.5,4.1,15.5,7,23.6,9.6c9,2.8,18.1,4.9,27.3,6.5c3.5,0.6,7,1.3,10.6,1.8
		c4.5,0.6,9,1.1,13.5,1.6c2.3,0.2,4.6,0.4,6.9,0.6c5.3,0.4,10.6,1,15.9,1.2c6.6,0.2,13.3,0.3,19.9,0.2c5.8-0.1,11.6-0.4,17.5-0.6
		c0.2,0,0.5,0,0.7,0c4-0.4,7.9-0.8,11.9-1.3c4-0.5,8.1-0.8,12.1-1.6c5.9-1.1,11.7-2.3,17.5-3.7c11.7-2.8,23-6.7,33.7-12.4
		c6.8-3.6,12.8-8,17.9-13.7c6.5-7.3,9.5-15.9,9.4-25.6C322.2,329.3,321.8,326.3,321.3,323.5z M250.1,350.3c0,0,0,0.1,0,0.1
		C250.1,350.4,250.1,350.3,250.1,350.3L250.1,350.3z"/>
	<g>
		<path d="M136.1,80c-1.9-1.3-3.6-2.2-4.9-3.4c-4.2-3.8-3.8-10.3,0.6-13.8c1.9-1.5,4.1-2.5,6.4-3.2c5.1-1.4,10.2-2.4,15.4-3
			c5.9-0.7,11.7-1.1,17.6-1.5c9.6-0.6,19.2-0.3,28.7-0.2c3.6,0,7.1,0.5,10.7,0.8c2.7,0.2,5.4,0.3,8.1,0.6c6,0.6,12,1.6,17.8,3.4
			c2.6,0.8,5,2,7.1,3.8c4.1,3.5,4.2,9.6,0.5,13.4c-1.3,1.4-2.9,2.5-4.6,4c-0.2,2.1-0.4,4.5-0.6,7c-0.7,9.2-0.5,18.3-0.3,27.5
			c0.1,6.1,0.7,12.2,1.2,18.3c0.3,3.9,0.8,7.8,1.5,11.6c1.1,6.4,3,12.7,5.5,18.7c3.1,7.3,6.3,14.6,9.6,21.9c2.9,6.4,5.9,12.7,9,19
			c4.4,9.3,9,18.5,13.4,27.7c4.1,8.5,8.2,16.9,12.2,25.4c3.5,7.4,7.1,14.8,10.6,22.2c4.9,10.3,9.8,20.5,14.7,30.8
			c0.9,1.9,2,3.6,2.8,5.6c0.9,2.3,1.7,4.7,2.1,7.1c0.5,2.9,0.9,5.8,0.9,8.8c0.1,9.7-2.9,18.3-9.4,25.6c-5.1,5.7-11.2,10.2-17.9,13.7
			c-10.7,5.7-22,9.5-33.7,12.4c-5.8,1.4-11.6,2.7-17.5,3.7c-4,0.7-8,1.1-12.1,1.6c-3.9,0.5-7.9,0.9-11.9,1.3c-0.2,0-0.5,0-0.7,0
			c-5.8,0.2-11.6,0.6-17.5,0.6c-6.6,0.1-13.3,0.1-19.9-0.2c-5.3-0.2-10.6-0.8-15.9-1.2c-2.3-0.2-4.6-0.3-6.9-0.6
			c-4.5-0.5-9-1-13.5-1.6c-3.5-0.5-7.1-1.2-10.6-1.8c-9.3-1.6-18.4-3.7-27.3-6.5c-8.2-2.5-16.1-5.5-23.6-9.6
			c-8-4.3-15.1-9.8-20.3-17.4c-2.9-4.2-5.2-8.8-6-13.9c-1.2-7-0.6-13.9,1.6-20.7c1.5-4.8,3.7-9.3,5.8-13.9
			c3.9-8.5,7.8-17.1,11.7-25.6c2.6-5.6,5.1-11.1,7.7-16.7c4.4-9.5,8.8-19.1,13.2-28.6c3.3-7.1,6.7-14.1,10-21.2
			c5.3-11.3,10.6-22.5,15.6-33.8c3.2-7.3,6.3-14.8,8.6-22.5c1.3-4.3,2.2-8.6,2.9-13c0.8-5.2,1.3-10.4,1.5-15.7
			c0.1-3.2,0.2-6.4,0.5-9.5c0.6-8.2,0.5-16.4,0.3-24.6C136.7,88.3,136.3,84,136.1,80z M141.3,81.4c0,0.6,0,1.2,0,1.8
			c0.3,5.2,0.7,10.5,0.8,15.7c0.1,5.6-0.2,11.2-0.3,16.7c-0.1,3.6-0.3,7.2-0.5,10.7c-0.3,6.3-0.8,12.6-2,18.7
			c-0.8,4.3-1.6,8.6-2.9,12.8c-2.1,6.4-4.4,12.8-6.9,19.1c-2,5-4.4,9.9-6.6,14.8c-4.4,9.6-8.8,19.1-13.2,28.6
			c-1.4,3.1-2.9,6.2-4.3,9.3c-4.3,9.6-8.6,19.2-12.9,28.8c-4,8.9-8,17.7-12,26.6c-2.8,6.3-5.5,12.5-8.3,18.8
			c-2.1,4.8-3.4,9.7-4,14.9c-0.3,2.7-0.3,5.4,0.1,8.1c0.3,2.3,0.7,4.6,1.3,6.8c2.2,7.3,6.5,13.4,12,18.7c5.2,5.1,11.1,9.1,17.5,12.4
			c7.2,3.7,14.8,6.3,22.5,8.6c2.4,0.7,4.7,1.4,7.1,1.9c6.7,1.6,13.5,3.1,20.4,4c5.5,0.7,11,1.6,16.5,2.2c4.6,0.5,9.2,0.7,13.8,1
			c4.5,0.2,8.9,0.4,13.4,0.4c4.8,0,9.6-0.2,14.3-0.4c1.4,0,2.9,0,4.3-0.1c3.3-0.2,6.7-0.5,10-0.8c2.1-0.2,4.3-0.3,6.4-0.6
			c4.7-0.7,9.4-1.5,14.1-2.3c6.7-1.2,13.4-2.8,19.9-4.9c5.1-1.7,10.1-3.4,14.9-5.8c6.8-3.3,13.3-7.3,19-12.4
			c4.9-4.4,9-9.5,11.7-15.6c3.4-7.8,3.8-15.9,2.4-24.1c-0.8-4.4-2.3-8.6-4.1-12.7c-3.5-7.6-7.1-15.2-10.6-22.7
			c-5.3-11.4-10.6-22.8-15.9-34.2c-2.6-5.6-5.3-11.2-8-16.8c-5.3-11.1-10.6-22.1-15.8-33.2c-2.2-4.7-4.3-9.4-6.4-14.1
			c-2.4-5.3-4.8-10.6-7-16c-1.6-4.1-3.2-8.3-4.2-12.7c-1.8-7.4-2.8-15-3.4-22.6c-0.5-5.4-0.8-10.8-0.9-16.2
			c-0.2-9.3-0.3-18.7,0.8-28c0.2-1.5,0.2-2.9,0.3-4.5C203.3,88.3,172.3,88.1,141.3,81.4z M185.7,58.1c-3.1,0.1-7.3,0.4-11.4,0.5
			c-6.1,0.1-12.3,0.5-18.4,1c-4.9,0.4-9.6,1.2-14.3,2.4c-2.4,0.6-4.5,1.6-6.4,3.1c-2.8,2.3-2.9,4.8-0.1,7.2c1.3,1.1,2.9,2,4.5,2.7
			c6.6,2.5,13.4,3.8,20.4,4.7c5.3,0.7,10.6,1.1,15.9,1.4c5.7,0.3,11.5,0.4,17.2,0.5c1.3,0,2.5-0.2,3.8-0.2c5.7,0,11.5-0.3,17.2-1
			c4.7-0.5,9.3-1.1,13.9-2c3-0.6,6-1.4,8.7-3.1c1.8-1.1,3.3-2.5,4.4-4.3c1.1-1.9,0.9-3.6-0.7-5.2c-1-1-2.2-1.8-3.5-2.4
			c-2.8-1.4-5.8-2.2-8.9-2.6c-6.4-0.8-12.8-1.5-19.2-1.9C201.4,58.3,194.1,58.3,185.7,58.1z"/>
		<path class="st2" d="M141.3,81.4c31.1,6.7,62,6.9,93.2,0.8c-0.1,1.5-0.2,3-0.3,4.5c-1.1,9.3-1,18.6-0.8,28
			c0.1,5.4,0.5,10.8,0.9,16.2c0.6,7.6,1.6,15.2,3.4,22.6c1.1,4.3,2.6,8.5,4.2,12.7c2.2,5.4,4.6,10.7,7,16c2.1,4.7,4.2,9.5,6.4,14.1
			c5.2,11.1,10.5,22.2,15.8,33.2c2.7,5.6,5.4,11.2,8,16.8c5.3,11.4,10.6,22.8,15.9,34.2c3.5,7.6,7.1,15.1,10.6,22.7
			c1.9,4.1,3.4,8.3,4.1,12.7c1.4,8.2,1,16.4-2.4,24.1c-2.7,6.1-6.7,11.2-11.7,15.6c-5.7,5.1-12.1,9-19,12.4
			c-4.8,2.3-9.8,4.1-14.9,5.8c-6.5,2.2-13.1,3.7-19.9,4.9c-4.7,0.9-9.4,1.6-14.1,2.3c-2.1,0.3-4.3,0.4-6.4,0.6
			c-3.3,0.3-6.7,0.6-10,0.8c-1.4,0.1-2.9,0.1-4.3,0.1c-4.8,0.1-9.6,0.4-14.3,0.4c-4.5,0-8.9-0.2-13.4-0.4c-4.6-0.2-9.2-0.5-13.8-1
			c-5.5-0.6-11-1.5-16.5-2.2c-6.9-0.9-13.6-2.4-20.4-4c-2.4-0.6-4.8-1.2-7.1-1.9c-7.7-2.3-15.3-4.9-22.5-8.6
			c-6.4-3.3-12.3-7.4-17.5-12.4c-5.4-5.3-9.7-11.4-12-18.7c-0.7-2.2-1-4.5-1.3-6.8c-0.4-2.7-0.4-5.4-0.1-8.1
			c0.6-5.2,1.9-10.1,4-14.9c2.8-6.3,5.5-12.6,8.3-18.8c4-8.9,8-17.7,12-26.6c4.3-9.6,8.6-19.2,12.9-28.8c1.4-3.1,2.9-6.2,4.3-9.3
			c4.4-9.5,8.8-19.1,13.2-28.6c2.3-4.9,4.6-9.8,6.6-14.8c2.5-6.3,4.8-12.6,6.9-19.1c1.3-4.1,2.1-8.5,2.9-12.8
			c1.2-6.2,1.7-12.5,2-18.7c0.2-3.6,0.4-7.2,0.5-10.7c0.2-5.6,0.4-11.2,0.3-16.7c-0.1-5.3-0.5-10.5-0.8-15.7
			C141.3,82.6,141.3,82,141.3,81.4z M240.4,179.9c0-0.3-0.1-0.6-0.1-0.8c-0.1,0-0.1,0-0.2,0.1C240.2,179.4,240.3,179.6,240.4,179.9
			c0.2,0.3,0.4,0.6,0.5,0.9c0.2,0.9,0.2,1.9,0.6,2.8c4.2,10.2,8.4,20.3,12.6,30.4c2.7,6.3,5.4,12.6,8.1,18.9c4,9.2,8,18.4,11.9,27.6
			c3.2,7.4,6.4,14.8,9.5,22.2c2.5,5.9,4.7,11.8,7.2,17.7c2.1,4.8,4,9.5,4.9,14.7c0.9,5.1,1,10.1,0,15.2c-1.4,6.8-5.2,12.3-10.2,16.9
			c-4.7,4.3-10,7.8-15.8,10.7c-5.4,2.8-11,4.9-16.9,6.6c-7.1,2.1-14.4,3.3-21.8,3.7c-6.5,0.3-12.9-0.1-19.3-1.2
			c-7-1.2-13.8-3.1-20.5-5.4c-4.9-1.7-9.6-4-14.2-6.3c-5.2-2.6-10.1-5.8-14.6-9.5c-4.5-3.6-8.6-7.6-12.2-12.1
			c-6.3-7.8-10.8-16.4-12.2-26.5c-1-7.5-0.3-14.8,2.5-21.8c2.6-6.6,6.5-12.4,11.7-17.3c4-3.8,8.6-6.9,13.5-9.4
			c6.6-3.4,13.7-5.5,20.9-7.2c7.8-1.8,15.5-4.3,22.4-8.6c6.5-4,11.8-9.2,15-16.3c3.5-7.7,4.1-15.6,2-23.7c-2.5-9.6-8.2-17-16.2-22.6
			c-3.5-2.5-7.3-4.5-11-6.7c-0.3-0.2-0.6-0.5-1.2-0.9c2.7-0.3,5.2,0,7.6-0.9c-1.3-0.7-2.6-0.9-4-0.7c-1.8,0.2-3.6,0.3-5.5,0.4
			c-5.3,0.3-10.7-0.3-16-0.8c-5.3-0.5-10.6-1.4-15.8-2.5c-2.1-0.4-4.2-0.7-6.3-1.3c-2.8-0.8-5.6-1.7-8.4-2.6
			c-2.3-0.8-4.5-1.9-6.9-2.9c0.3-1.1,0.6-1.9,0.9-2.7c5.4,1.4,10.4,3.3,15.9,4.2c0.7-1.3,1.7-2.2,3.3-1.9c1.5,0.3,1.5,1.7,2,2.9
			c12,2.6,24.2,3.5,36.5,2.7c0.2-3.3,2-5.3,5-5.9c3.2-0.6,5.2,1.5,6.5,4.1c4.7-0.2,13.3-3.1,15.4-5.3c-1.9-0.1-3.8-0.3-5.6-0.4
			c-2.1-0.2-4.1-0.4-6.2-0.7c-2.7-0.4-5.3-0.8-8-1.2c-3.3-0.5-6.6-0.9-9.9-1.4c-1.3-0.2-2.5-0.2-3.7,0.6c-0.3,0.2-0.7,0.4-1.1,0.5
			c-1.6,0.6-2.5,0.4-3.5-1c-0.9-1.3-2.3-1.3-3.6-1.3c-0.5,0-1.1,0.2-1.7,0.2c-1.7,0-1.9-0.1-2.5-1.6c-1.4-3.2-3.8-5-7.3-5.2
			c-0.6,0-1.2-0.1-1.9-0.1c-0.1-0.3-0.2-0.6-0.2-0.8c-0.3-4.5-0.7-9.1-0.8-13.6c-0.3-8.1-0.3-16.3-0.6-24.4
			c-0.1-3.1-0.3-6.2-0.5-9.3c-0.1-1.4-0.2-2.9-0.5-4.3c-0.3-1.7-0.6-3.4-1.1-5.1c-0.3-1.2-1-2-2.3-2.1c-1.1-0.1-2.2-0.3-3.3-0.5
			c-4.1-0.7-8.1-1.5-12.2-2.2c-1.9-0.4-3.8-0.8-5.8-1.2c-0.1,0.4-0.2,0.7-0.1,0.9c0.3,4.5,0.8,9,0.8,13.6c0.1,6.6-0.2,13.2-0.3,19.9
			c-0.1,3.4-0.4,6.8-0.5,10.3c-0.2,6.9-1.4,13.8-2.6,20.6c-2,11-5.5,21.6-9.8,31.9c-2.3,5.6-4.6,11.2-7,16.7
			c-2.2,5.1-4.4,10.1-6.6,15.1c-1.8,4.1-3.8,8.2-5.6,12.4c-3.3,7.4-6.5,14.9-9.8,22.3c-3.6,8.3-7.3,16.6-11,24.9
			c-3.6,8.2-7.2,16.5-10.8,24.7c-2.7,6.1-5.5,12.2-6.8,18.8c-0.7,4-0.8,7.9,0,11.9c1.4,7.1,5,13,9.7,18.3c4.6,5,10,8.9,15.9,12.2
			c8.5,4.7,17.5,7.9,26.9,10.3c4.9,1.2,9.9,2.3,14.9,3.3c4.3,0.8,8.6,1.4,13,2c3.5,0.5,7.1,0.8,10.7,1.1c5.4,0.5,10.8,1.1,16.2,1.3
			c8.5,0.2,16.9,0.1,25.4,0c2.6,0,5.3-0.2,7.9-0.5c3.7-0.4,7.4-0.8,11.1-1.3c3.8-0.5,7.6-0.9,11.3-1.6c6.2-1.2,12.4-2.6,18.5-4.5
			c9-2.7,17.4-6.5,25.3-11.6c5-3.2,9.4-7.2,13.2-11.7c6.3-7.6,8.4-16.5,7.4-26.2c-0.4-3.3-1-6.6-2.4-9.7c-3.6-8.2-7.3-16.5-11-24.7
			c-3.8-8.3-7.6-16.7-11.5-25c-5.1-10.9-10.2-21.8-15.3-32.6c-4.6-9.6-9.2-19.3-13.8-28.9c-1.8-3.9-3.6-7.8-5.4-11.7
			c-0.9-1.8-1.9-3.6-2.9-5.4C240.7,180.5,240.5,180.2,240.4,179.9z M188,290.1c-8.8-0.2-15.1,6.9-15,14.7
			c0.1,9.3,6.9,14.9,14.8,14.8c8.9,0,14.6-6.5,14.7-14.6C202.6,296.3,196,290.3,188,290.1z M229.7,158.1c0.5-0.5,0.8-0.7,1-1
			c1.2-1.3,2-2.6,1.1-4.5c-0.4-0.9-0.5-2-0.6-3c-0.5-3.8-1.1-7.5-1.5-11.3c-0.5-4.8-1.1-9.6-1.2-14.5c-0.2-6.8-0.2-13.6-0.2-20.3
			c0-2.9,0.1-5.9,0.2-8.8c0.2-2.8,0.5-5.7,0.7-8.8c-1.5,0.3-2.8,0.5-4,0.8c-1.1,4.3-1.3,8.6-1.5,12.9c-0.2,6.6-0.3,13.2,0.2,19.8
			c0.5,6.2,0.9,12.4,2,18.5c0.9,5.1,1.7,10.2,2.6,15.3C228.8,154.6,229.3,156.2,229.7,158.1z M233.4,159.4c-1.7,2.4-3.9,3.9-6.4,5.2
			c-3.6,1.8-7.4,2.9-11.3,3.8c-3.7,0.8-3.7,0.7-6.3,2.9c0.9-0.2,1.6-0.4,2.3-0.5c5.1-0.7,9.9-2.2,14.7-4c2.6-1,4.7-2.7,6.4-4.9
			C233.2,161.2,233.9,160.5,233.4,159.4z M233.7,326.7c0-2.4-1.8-4.4-4-4.5c-2.3-0.1-4.5,1.9-4.5,4c0,2.3,2.2,4.5,4.4,4.5
			C232,330.7,233.7,329.1,233.7,326.7z M245.4,275.2c-2.4,0-3.6,1.3-3.6,3.8c0,2.4,1.6,3.9,3.8,3.9c2.1,0,3.4-1.7,3.5-4
			C249.2,277,247.3,274.8,245.4,275.2z M242.5,309.2c2,0,3.6-1.7,3.5-3.8c-0.1-1.9-1.7-3.4-3.7-3.3c-2.1,0-3.7,1.6-3.8,3.5
			C238.5,307.6,240.2,309.2,242.5,309.2z M237.5,242.1c0,2.2,1.5,3.8,3.6,3.9c2,0,3.6-1.5,3.7-3.5c0.1-2.2-1.5-4.1-3.5-4
			C239.2,238.5,237.3,239.8,237.5,242.1z M258.6,331.5c0-2-1.6-3.5-3.7-3.5c-1.9,0-3.5,1.6-3.5,3.5c0,1.8,1.6,3.5,3.4,3.5
			C256.8,335,258.6,333.4,258.6,331.5z M262.9,260.8c0.1,2.3,1.3,3,3.1,3.2c1.4,0.2,2.8-1.4,2.8-2.9c0-1.7-0.9-2.8-3-3.1
			C264.2,257.8,262.9,259.2,262.9,260.8z M282.2,321.7c1.3,0,2.6-1.3,2.7-2.6c0.1-1.4-1.4-3.1-2.8-3.1c-1.4,0-2.7,1.3-2.8,2.8
			C279.4,320.4,280.7,321.7,282.2,321.7z M265.4,312.1c-1.2,0-2.3,0.9-2.3,1.9c0,1.2,1.2,2.4,2.4,2.4c1.3,0,2.2-0.9,2.2-2.3
			C267.7,312.9,266.8,312,265.4,312.1z M248.7,351.5c0.7,1.1,1.3,2,2.7,1.5c0.8-0.3,1.4-1.2,1.3-2c-0.2-1-1-1.9-1.9-1.9
			C249.5,349.3,248.9,350.2,248.7,351.5z M252.4,262.7c0-1.2-0.7-2-1.9-2c-1,0-1.9,0.8-1.9,1.7c0,0.9,1,2.1,1.9,2
			C251.5,264.5,252.4,263.6,252.4,262.7z M270.1,288.6c0-0.9-0.6-1.4-1.5-1.4c-0.9,0-1.7,0.7-1.8,1.6c-0.1,0.8,0.6,1.3,1.6,1.4
			C269.5,290.1,270.2,289.5,270.1,288.6z M231.9,178.4c-0.5-0.4-0.8-0.8-1.1-0.9c-0.5-0.2-1,0.2-0.9,0.7c0,0.3,0.5,0.9,0.8,0.9
			C231,179.2,231.4,178.8,231.9,178.4z M273.7,334.2c-0.4-0.2-0.6-0.5-0.8-0.4c-0.2,0.1-0.4,0.4-0.6,0.6c0.3,0.2,0.5,0.5,0.8,0.6
			C273.2,334.9,273.4,334.6,273.7,334.2z M269.7,272.4c-0.3,0.7-0.4,0.9-0.4,1.1c0.2,0.1,0.4,0.2,0.6,0.2c0,0,0.2-0.2,0.2-0.4
			C270,273.1,269.8,272.9,269.7,272.4z"/>
		<path class="st2" d="M185.7,58.1c8.4,0.2,15.7,0.3,23,0.7c6.4,0.4,12.8,1.1,19.2,1.9c3.1,0.4,6.1,1.2,8.9,2.6
			c1.3,0.6,2.5,1.4,3.5,2.4c1.6,1.6,1.8,3.3,0.7,5.2c-1.1,1.8-2.6,3.2-4.4,4.3c-2.7,1.7-5.7,2.5-8.7,3.1c-4.6,1-9.3,1.5-13.9,2
			c-5.7,0.7-11.4,1-17.2,1c-1.3,0-2.5,0.3-3.8,0.2c-5.7-0.1-11.5-0.2-17.2-0.5c-5.3-0.3-10.6-0.7-15.9-1.4
			c-6.9-0.9-13.8-2.2-20.4-4.7c-1.6-0.6-3.2-1.5-4.5-2.7c-2.8-2.4-2.7-4.9,0.1-7.2c1.9-1.5,4-2.5,6.4-3.1c4.7-1.2,9.5-2,14.3-2.4
			c6.1-0.5,12.2-0.9,18.4-1C178.5,58.5,182.6,58.2,185.7,58.1z M186.6,62.6c0-0.1,0-0.2,0-0.3c-6.9,0.2-13.7,0.5-20.6,0.6
			c-5.1,0.1-10.2,0.6-15.2,1.2c-2.7,0.3-5.3,0.8-8,1.4c-1.1,0.2-2.1,0.7-3.1,1.2c-1.4,0.8-1.4,2,0.1,2.7c1.2,0.6,2.5,1,3.8,1.3
			c5.6,1.3,11.3,1.8,17,2.3c6,0.5,12.1,0.8,18.1,0.9c11.1,0.3,22.2,0.3,33.2-0.8c5.3-0.5,10.6-0.9,15.9-1.6c2.4-0.3,4.9-0.8,7.1-2
			c0.8-0.4,1.6-0.8,1.5-1.9c-0.1-1-0.8-1.6-1.7-1.9c-1-0.3-2-0.7-3-0.8c-3.9-0.5-7.7-1.1-11.6-1.4c-5.6-0.4-11.3-0.8-16.9-1
			C197.8,62.4,192.2,62.6,186.6,62.6z"/>
		<path d="M240.9,180.8c1,1.8,2,3.5,2.9,5.4c1.9,3.9,3.6,7.8,5.4,11.7c4.6,9.6,9.2,19.3,13.8,28.9c5.1,10.9,10.3,21.7,15.3,32.6
			c3.9,8.3,7.7,16.6,11.5,25c3.7,8.2,7.3,16.4,11,24.7c1.4,3.1,2,6.4,2.4,9.7c1,9.7-1.1,18.6-7.4,26.2c-3.8,4.6-8.2,8.5-13.2,11.7
			c-7.9,5.1-16.4,8.8-25.3,11.6c-6.1,1.8-12.3,3.3-18.5,4.5c-3.7,0.7-7.5,1.1-11.3,1.6c-3.7,0.5-7.4,0.9-11.1,1.3
			c-2.6,0.3-5.2,0.5-7.9,0.5c-8.5,0.1-16.9,0.2-25.4,0c-5.4-0.1-10.8-0.8-16.2-1.3c-3.6-0.3-7.1-0.6-10.7-1.1c-4.3-0.6-8.7-1.2-13-2
			c-5-0.9-10-2-14.9-3.3c-9.4-2.4-18.4-5.6-26.9-10.3c-5.9-3.3-11.3-7.1-15.9-12.2c-4.8-5.3-8.3-11.2-9.7-18.3
			c-0.8-4-0.7-7.9,0-11.9c1.2-6.6,4.1-12.7,6.8-18.8c3.6-8.2,7.2-16.5,10.8-24.7c3.6-8.3,7.3-16.6,11-24.9
			c3.3-7.4,6.5-14.9,9.8-22.3c1.8-4.2,3.8-8.3,5.6-12.4c2.2-5,4.4-10,6.6-15.1c2.4-5.6,4.7-11.2,7-16.7c4.3-10.3,7.8-20.9,9.8-31.9
			c1.2-6.8,2.4-13.6,2.6-20.6c0.1-3.4,0.4-6.8,0.5-10.3c0.2-6.6,0.4-13.2,0.3-19.9c0-4.5-0.6-9.1-0.8-13.6c0-0.2,0.1-0.4,0.1-0.9
			c2,0.4,3.9,0.9,5.8,1.2c4.1,0.8,8.1,1.5,12.2,2.2c1.1,0.2,2.2,0.4,3.3,0.5c1.3,0.2,2,0.9,2.3,2.1c0.4,1.7,0.8,3.4,1.1,5.1
			c0.2,1.4,0.4,2.8,0.5,4.3c0.2,3.1,0.5,6.2,0.5,9.3c0.2,8.1,0.3,16.3,0.6,24.4c0.1,4.5,0.5,9.1,0.8,13.6c0,0.2,0.1,0.5,0.2,0.8
			c0.6,0,1.2,0.1,1.9,0.1c3.5,0.2,6,1.9,7.3,5.2c0.6,1.5,0.8,1.6,2.5,1.6c0.6,0,1.1-0.2,1.7-0.2c1.3,0,2.7,0,3.6,1.3
			c1,1.4,2,1.6,3.5,1c0.4-0.1,0.7-0.3,1.1-0.5c1.2-0.7,2.4-0.7,3.7-0.6c3.3,0.4,6.6,0.9,9.9,1.4c2.7,0.4,5.3,0.8,8,1.2
			c2,0.3,4.1,0.5,6.2,0.7c1.8,0.2,3.6,0.3,5.6,0.4c-2.1,2.1-10.7,5-15.4,5.3c-1.3-2.6-3.3-4.7-6.5-4.1c-3,0.6-4.9,2.6-5,5.9
			c-12.4,0.8-24.5-0.1-36.5-2.7c-0.5-1.2-0.5-2.6-2-2.9c-1.6-0.3-2.5,0.7-3.3,1.9c-5.4-0.9-10.5-2.8-15.9-4.2
			c-0.3,0.8-0.5,1.7-0.9,2.7c2.4,1,4.6,2,6.9,2.9c2.8,1,5.6,1.9,8.4,2.6c2.1,0.6,4.2,0.8,6.3,1.3c5.2,1.1,10.5,2,15.8,2.5
			c5.3,0.5,10.6,1.1,16,0.8c1.8-0.1,3.7-0.2,5.5-0.4c1.4-0.1,2.7,0,4,0.7c-2.4,0.9-4.8,0.6-7.6,0.9c0.5,0.4,0.8,0.7,1.2,0.9
			c3.7,2.2,7.5,4.3,11,6.7c8,5.6,13.7,13,16.2,22.6c2.1,8.1,1.5,16.1-2,23.7c-3.2,7.1-8.5,12.2-15,16.3c-6.9,4.3-14.6,6.7-22.4,8.6
			c-7.2,1.7-14.3,3.7-20.9,7.2c-4.9,2.5-9.5,5.6-13.5,9.4c-5.1,4.9-9.1,10.8-11.7,17.3c-2.8,7-3.5,14.3-2.5,21.8
			c1.3,10.1,5.9,18.7,12.2,26.5c3.6,4.5,7.7,8.5,12.2,12.1c4.5,3.7,9.4,6.9,14.6,9.5c4.6,2.3,9.3,4.6,14.2,6.3
			c6.7,2.3,13.5,4.2,20.5,5.4c6.4,1.1,12.8,1.6,19.3,1.2c7.4-0.4,14.7-1.5,21.8-3.7c5.8-1.7,11.4-3.9,16.9-6.6
			c5.7-2.9,11.1-6.4,15.8-10.7c5-4.6,8.8-10.1,10.2-16.9c1-5.1,0.9-10.1,0-15.2c-0.9-5.1-2.9-9.9-4.9-14.7
			c-2.5-5.8-4.7-11.8-7.2-17.7c-3.1-7.4-6.3-14.8-9.5-22.2c-4-9.2-8-18.4-11.9-27.6c-2.7-6.3-5.5-12.5-8.1-18.9
			c-4.3-10.1-8.5-20.3-12.6-30.4C241.2,182.7,241.1,181.7,240.9,180.8L240.9,180.8z M125.9,212c-0.3,0.5-0.8,0.9-1,1.5
			c-3.1,7.2-6.3,14.4-9.4,21.7c-3.2,7.4-6.3,14.8-9.4,22.2c-3,7.2-6,14.4-9,21.6c-2.4,6-4.7,12-7.1,18c-1.9,5-3.9,9.9-5.5,15
			c-1.8,5.3-1.9,10.8-0.8,16.3c0.7,3.2,2.4,6.5,4.3,8.7c-0.1-0.6-0.2-1.1-0.2-1.5c-0.2-1.5-0.6-3-0.7-4.5c-0.4-6,0.6-11.7,2.6-17.3
			c3.1-8.4,6.3-16.8,9.3-25.3c5.2-14.5,10.2-29.1,15.4-43.6c3.6-10,7.2-20,10.9-30.1C125.5,213.7,125.6,212.8,125.9,212
			c0.1-0.3,0.2-0.5,0.3-0.8c-0.1,0-0.2-0.1-0.2-0.1C126,211.4,125.9,211.7,125.9,212z M191.1,222.1c6.5,0.1,14.9-5.1,14.6-15.3
			c-0.1-7.1-5.8-14.1-14.9-13.9c-7.8,0.2-14.7,6.5-14.4,15.5C176.7,215.7,183.7,222.3,191.1,222.1z M164,140.5
			c2.7,0,5.4-2.8,5.4-5.4c0-2.4-2.8-5-5.3-4.9c-2.5,0.1-5.1,2.8-5.1,5.2C159,138,161.5,140.6,164,140.5z M146.9,202.1
			c0,2.4,1.8,4.4,4.1,4.5c2.3,0.1,4.6-2.1,4.5-4.3c-0.1-2.3-1.9-4.3-4.5-4.5C148.9,197.5,146.9,199.7,146.9,202.1z M132.7,230.8
			c0-2-2.1-3.9-4.1-3.9c-1.8,0-3.7,2.1-3.6,4.1c0.1,2,1.9,3.8,3.9,3.9C130.9,234.9,132.7,233,132.7,230.8z M178.6,178.1
			c0-2.1-1.6-3.6-3.6-3.7c-2.1-0.1-3.9,2.2-4,3.7c-0.1,1.9,1.9,4,3.7,4C176.8,182.1,178.4,180.7,178.6,178.1z M117.6,318.6
			c0,2.3,1.7,4.1,3.8,4c2-0.1,3.5-1.8,3.5-3.8c-0.1-2.2-1.9-3.9-4-3.9C118.9,315,117.6,316.4,117.6,318.6z M172.5,158.3
			c1.8,0,3.6-2,3.5-3.9c0-2-2-3.8-3.8-3.9c-1.5,0-3.7,1.9-3.7,4C168.6,156.5,170.7,158.3,172.5,158.3z M156.5,184.4
			c0,1.9,1.5,3.4,3.2,3.4c1.7,0,3.4-1.6,3.5-3.3c0.1-1.8-1.5-3.6-3.3-3.7C158.1,180.7,156.5,182.4,156.5,184.4z M113.1,279.7
			c0,1.7,1.8,3.5,3.3,3.4c1.7-0.1,3.4-1.7,3.4-3.4c0-1.7-1.8-3.6-3.5-3.6C114.7,276.3,113.1,278,113.1,279.7z M185,163.7
			c1.8,0,3.3-1.2,3.3-2.8c0-1.4-1.9-3-3.5-3c-1.4,0-2.7,1.3-2.8,2.8C181.9,162.3,183.2,163.6,185,163.7z M148.7,224.2
			c0.9,0,2.1-1.2,2.1-2c0-1.1-1-2.2-2.1-2.2c-0.9,0-2.1,1.3-2.1,2.2C146.6,223.2,147.8,224.3,148.7,224.2z M125.4,288.2
			c1,1.8,1.5,2.1,2.5,1.8c0.9-0.3,1.7-1.3,1.7-2.1c0-0.8-0.8-1.6-1.6-1.8C126.9,285.9,126.4,286.3,125.4,288.2z M135,326
			c-0.7-1-1.3-1.9-2.5-1.6c-0.8,0.2-1.4,1-1.4,1.7c0,0.8,0.8,1.7,1.6,1.8C134.1,328.2,134.2,326.9,135,326z M117.6,336.8
			c-0.5-1.1-1-2-2.3-1.7c-0.8,0.2-1.4,0.8-1.4,1.7c0,0.8,0.4,1.4,1.1,1.6C116,338.8,116.6,338.4,117.6,336.8z M116.9,347.6
			c0-1-0.6-1.6-1.7-1.6c-1.1,0-1.9,0.7-1.8,1.7c0.1,0.9,0.9,1.7,1.7,1.7C116.1,349.5,116.9,348.6,116.9,347.6z M197.6,163
			c0.7,0,1.7-1.1,1.6-1.7c-0.1-0.6-1-1.5-1.6-1.5c-0.8,0-1.7,0.9-1.7,1.6C195.9,162.2,196.8,163.1,197.6,163z M106.7,311.6
			c0.7-0.5,1.6-0.9,1.4-2c-0.2-0.9-1.2-1.5-2-1.4c-0.8,0.2-1.3,0.8-1.3,1.5C104.7,310.9,105.7,311.2,106.7,311.6z M132.1,255.5
			c1.1-0.4,1.9-1,1.7-2.1c-0.1-0.7-0.7-1.3-1.5-1.3c-0.8,0-1.4,0.3-1.6,1.1C130.4,254.4,131.1,255,132.1,255.5z M173.5,193.8
			c0.7-0.7,1.2-1.3,1.8-1.9c-0.7-0.9-1.1-1.9-2.3-1.5c-0.5,0.2-1.1,0.8-1.2,1.3C171.7,192.7,172.6,193.2,173.5,193.8z M150.5,154.6
			c-0.7,0-1.7,0.9-1.6,1.5c0,0.7,1,1.4,2,1.3c0.7,0,1.2-0.3,1.3-1.1C152.3,155.7,151.3,154.6,150.5,154.6z M184.8,185.6
			c0.8-0.5,1.7-0.9,1.4-2c-0.1-0.4-0.8-0.9-1.2-0.9c-0.5,0-1.3,0.5-1.4,0.9C183.1,184.7,184.1,185,184.8,185.6z M165.6,201.1
			c-0.1-0.6-0.9-1.3-1.6-1.2c-0.7,0.1-1.2,0.5-1.2,1.3c-0.1,0.6,0.8,1.3,1.4,1.3C164.9,202.4,165.7,201.7,165.6,201.1z M206.8,186
			c-0.9,0.7-1.7,1.1-1.2,2.1c0.3,0.6,0.8,1.1,1.5,0.7c0.4-0.2,0.7-0.7,1.3-1.3C207.8,187,207.4,186.6,206.8,186z M156.9,157.8
			c0.6-0.1,1.3-0.8,1-1.4c-0.3-0.5-0.8-1-1.3-1.2c-0.5-0.2-1.2,0.6-1.1,1.2C155.5,157.2,156.2,157.8,156.9,157.8z M147.8,174.2
			c-0.4,0.6-0.9,0.9-0.8,1.3c0,0.3,0.5,0.9,0.7,0.9c0.4,0,1-0.5,1-0.7C148.6,175.3,148.2,174.9,147.8,174.2z M120.2,254.7
			c-0.6-0.7-1-1.2-1.6-0.6c-0.5,0.6-0.1,1,0.6,1.6C119.6,255.3,119.9,255,120.2,254.7z M119.8,269.3c-0.2-0.2-0.3-0.4-0.4-0.5
			c-0.2,0.1-0.3,0.3-0.5,0.4c0.1,0.2,0.3,0.4,0.4,0.4C119.4,269.7,119.6,269.4,119.8,269.3z"/>
		<path d="M188,290.1c8,0.2,14.6,6.2,14.5,14.9c-0.1,8.2-5.8,14.6-14.7,14.6c-7.9,0-14.7-5.6-14.8-14.8
			C172.9,297,179.2,289.9,188,290.1z M176.8,301.8c5.3-6.5,3.8-5.6,11.9-8.2c-1.4-1.1-3.8-1-6.4,0.4
			C179.1,295.7,176.8,298,176.8,301.8z"/>
		<path d="M229.7,158.1c-0.4-1.9-0.9-3.5-1.2-5.1c-0.9-5.1-1.7-10.2-2.6-15.3c-1.1-6.1-1.5-12.3-2-18.5c-0.6-6.6-0.5-13.2-0.2-19.8
			c0.2-4.3,0.4-8.6,1.5-12.9c1.3-0.2,2.6-0.5,4-0.8c-0.3,3.1-0.6,6-0.7,8.8c-0.2,2.9-0.2,5.9-0.2,8.8c0,6.8-0.1,13.6,0.2,20.3
			c0.2,4.8,0.7,9.7,1.2,14.5c0.4,3.8,1,7.6,1.5,11.3c0.1,1,0.2,2.1,0.6,3c0.9,1.9,0.1,3.2-1.1,4.5
			C230.5,157.4,230.3,157.6,229.7,158.1z"/>
		<path d="M233.4,159.4c0.5,1.1-0.2,1.8-0.7,2.5c-1.7,2.2-3.8,3.9-6.4,4.9c-4.7,1.9-9.6,3.3-14.7,4c-0.7,0.1-1.4,0.3-2.3,0.5
			c2.5-2.2,2.6-2.1,6.3-2.9c3.9-0.8,7.7-2,11.3-3.8C229.5,163.3,231.7,161.8,233.4,159.4z"/>
		<path d="M233.7,326.7c0,2.4-1.7,4-4.1,4c-2.2,0-4.4-2.2-4.4-4.5c0-2.1,2.2-4.1,4.5-4C231.9,322.3,233.8,324.3,233.7,326.7z
			 M229.2,327.9c1.4,0,2.5-1,2.4-2.1c-0.1-1.3-1.3-2.4-2.6-2.3c-1.3,0-2.2,1-2.2,2.3C226.9,327.2,227.8,328,229.2,327.9z"/>
		<path d="M245.4,275.2c1.9-0.4,3.8,1.8,3.8,3.7c-0.1,2.3-1.4,3.9-3.5,4c-2.2,0-3.8-1.6-3.8-3.9C241.8,276.5,243,275.2,245.4,275.2z
			 M245,276.5c-1.1,0-1.8,0.6-1.8,1.7c0,1.1,0.6,1.7,1.7,1.8c1.1,0.1,2.1-0.7,2.2-1.7C247.1,277.4,246.1,276.5,245,276.5z"/>
		<path d="M242.5,309.2c-2.2,0-4-1.6-3.9-3.6c0-2,1.7-3.5,3.8-3.5c2,0,3.6,1.5,3.7,3.3C246.1,307.4,244.4,309.1,242.5,309.2z
			 M241.9,302.9c-1.2,0-2,0.8-2,1.9c0,1,0.9,1.9,1.9,2c1,0,2.2-1.1,2.2-2.1C244,303.7,243,302.9,241.9,302.9z"/>
		<path d="M237.5,242.1c-0.2-2.2,1.7-3.6,3.8-3.7c2-0.1,3.5,1.8,3.5,4c-0.1,2-1.7,3.6-3.7,3.5C239,245.9,237.4,244.2,237.5,242.1z
			 M242.7,241.8c0-1.3-1-2.2-2.3-2.2c-1.5,0-2.4,1-2.4,2.3c0,1.3,1,2.2,2.3,2.2C241.6,244.2,242.8,243,242.7,241.8z"/>
		<path d="M258.6,331.5c0,1.9-1.8,3.5-3.8,3.5c-1.8,0-3.5-1.7-3.4-3.5c0-1.9,1.6-3.5,3.5-3.5C257,328,258.6,329.5,258.6,331.5z
			 M252.3,331.2c0,1.4,0.6,2,1.8,1.9c1.2,0,2.5-1.2,2.6-2.4c0.1-1.1-0.9-2.1-2.1-2C253.1,328.8,252.3,329.7,252.3,331.2z"/>
		<path d="M262.9,260.8c0-1.6,1.3-3,2.9-2.8c2,0.3,2.9,1.4,3,3.1c0,1.6-1.3,3.1-2.8,2.9C264.1,263.8,262.9,263.1,262.9,260.8z
			 M265.4,258.9c-0.9,0-1.5,0.5-1.5,1.4c0,0.9,0.7,1.8,1.5,1.8c0.7,0,1.5-0.8,1.6-1.5C267,259.7,266.3,258.9,265.4,258.9z"/>
		<path d="M282.2,321.7c-1.6,0-2.9-1.3-2.8-2.9c0-1.5,1.4-2.8,2.8-2.8c1.3,0,2.8,1.7,2.8,3.1C284.9,320.4,283.5,321.7,282.2,321.7z
			 M281.9,317c-0.8-0.1-1.7,0.8-1.7,1.6c0,0.7,0.6,1.3,1.4,1.3c0.9,0,1.5-0.5,1.6-1.4C283.2,317.7,282.6,317,281.9,317z"/>
		<path d="M265.4,312.1c1.4,0,2.3,0.8,2.3,2.1c0,1.3-0.9,2.3-2.2,2.3c-1.3,0-2.5-1.2-2.4-2.4C263.1,313,264.1,312.1,265.4,312.1z
			 M265.3,312.2c-0.5,0.8-0.8,1.2-0.8,1.3c0.2,0.2,0.5,0.4,0.8,0.5c0.1-0.2,0.4-0.5,0.4-0.7C265.7,313,265.5,312.7,265.3,312.2z"/>
		<path d="M248.7,351.5c0.2-1.3,0.8-2.2,2.1-2.3c0.8,0,1.7,0.9,1.9,1.9c0.1,0.8-0.5,1.7-1.3,2C250,353.6,249.4,352.6,248.7,351.5z
			 M251.2,350.3c0-0.1-0.1-0.3-0.1-0.4c-0.3,0.1-0.7,0.3-1,0.4c0.1,0.1,0.1,0.4,0.2,0.4C250.6,350.6,250.9,350.4,251.2,350.3z"/>
		<path d="M252.4,262.7c0,0.9-0.9,1.8-1.8,1.8c-0.9,0-2-1.1-1.9-2c0-0.9,0.9-1.7,1.9-1.7C251.6,260.7,252.4,261.5,252.4,262.7z
			 M250.7,262.2c-0.1-0.1-0.2-0.4-0.2-0.3c-0.2,0-0.4,0.1-0.6,0.2c0.1,0.2,0.2,0.4,0.2,0.5C250.4,262.4,250.6,262.3,250.7,262.2z"/>
		<path d="M270.1,288.6c0,0.9-0.6,1.5-1.7,1.5c-1,0-1.6-0.6-1.6-1.4c0.1-0.8,0.9-1.6,1.8-1.6C269.5,287.2,270.1,287.7,270.1,288.6z
			 M268.3,287.9c-0.1,0.2-0.3,0.4-0.4,0.5c0.1,0.1,0.3,0.2,0.4,0.2c0.1-0.1,0.2-0.3,0.3-0.4C268.6,288.1,268.4,288,268.3,287.9z"/>
		<path d="M231.9,178.4c-0.6,0.3-1,0.8-1.3,0.7c-0.3,0-0.7-0.6-0.8-0.9c-0.1-0.5,0.4-0.8,0.9-0.7C231.2,177.6,231.4,178,231.9,178.4
			z"/>
		<path d="M273.7,334.2c-0.3,0.3-0.5,0.7-0.6,0.7c-0.3-0.1-0.6-0.4-0.8-0.6c0.2-0.2,0.4-0.5,0.6-0.6
			C273.1,333.7,273.3,334,273.7,334.2z"/>
		<path d="M269.7,272.4c0.2,0.5,0.3,0.7,0.3,0.9c0,0.1-0.1,0.4-0.2,0.4c-0.2,0-0.4-0.1-0.6-0.2C269.3,273.3,269.4,273.1,269.7,272.4
			z"/>
		<path d="M240.9,180.8c-0.2-0.3-0.3-0.6-0.5-0.9l-0.1,0.1C240.5,180.2,240.7,180.5,240.9,180.8L240.9,180.8z"/>
		<path d="M240.4,179.8c-0.1-0.2-0.2-0.5-0.4-0.7c0.1,0,0.1,0,0.2-0.1C240.3,179.3,240.3,179.6,240.4,179.8L240.4,179.8z"/>
		<path d="M186.6,62.6c5.6,0,11.2-0.1,16.8,0c5.6,0.2,11.3,0.5,16.9,1c3.9,0.3,7.7,0.9,11.6,1.4c1,0.1,2,0.5,3,0.8
			c0.9,0.3,1.6,0.9,1.7,1.9c0.1,1.1-0.7,1.5-1.5,1.9c-2.2,1.2-4.6,1.7-7.1,2c-5.3,0.6-10.6,1.1-15.9,1.6c-11.1,1-22.1,1-33.2,0.8
			c-6-0.1-12.1-0.5-18.1-0.9c-5.7-0.5-11.4-1-17-2.3c-1.3-0.3-2.6-0.7-3.8-1.3c-1.5-0.7-1.5-1.9-0.1-2.7c0.9-0.6,2-1,3.1-1.2
			c2.6-0.6,5.3-1.1,8-1.4c5.1-0.6,10.1-1.1,15.2-1.2c6.9-0.1,13.7-0.4,20.6-0.6C186.6,62.4,186.6,62.5,186.6,62.6z M223.2,68.2
			c-0.1-1.1-0.8-1.2-1.4-1.3c-1-0.3-2-0.4-3.1-0.5c-5.1-0.3-10.2-0.8-15.3-0.9c-14.2-0.3-28.4-0.4-42.6,0.4
			c-2.1,0.1-4.1,0.3-6.2,0.5c-0.9,0.1-1.7,0.4-2.5,0.7c-0.4,0.2-1,0.7-0.9,0.9c0.2,0.5,0.6,0.9,1,1.1c0.3,0.2,0.8,0.1,1.2,0.2
			c3.6,0.3,7.1,0.6,10.7,0.8c5.6,0.2,11.2,0.5,16.7,0.5c8.7,0,17.4-0.2,26.1-0.4c4-0.1,8-0.3,11.9-0.6
			C220.4,69.5,222,69.4,223.2,68.2z"/>
		<path class="st2" d="M191.1,222.1c-7.4,0.3-14.4-6.4-14.6-13.8c-0.3-9,6.6-15.3,14.4-15.5c9.1-0.2,14.7,6.8,14.9,13.9
			C206,216.9,197.7,222.1,191.1,222.1z"/>
		<path class="st2" d="M125.8,211.9c-0.2,0.8-0.3,1.7-0.6,2.5c-3.6,10-7.3,20-10.9,30.1c-5.2,14.5-10.2,29.1-15.4,43.6
			c-3,8.5-6.2,16.9-9.3,25.3c-2,5.6-3,11.4-2.6,17.3c0.1,1.5,0.5,3,0.7,4.5c0.1,0.5,0.1,0.9,0.2,1.5c-1.9-2.1-3.6-5.4-4.3-8.7
			c-1.1-5.5-1-11,0.8-16.3c1.7-5.1,3.6-10,5.5-15c2.3-6,4.6-12,7.1-18c2.9-7.2,6-14.4,9-21.6c3.1-7.4,6.3-14.8,9.4-22.2
			c3.1-7.2,6.2-14.5,9.4-21.7C125.1,212.9,125.6,212.5,125.8,211.9C125.9,212,125.8,211.9,125.8,211.9z"/>
		<path class="st2" d="M164,140.5c-2.5,0-5-2.5-5-5.2c0-2.4,2.7-5.1,5.1-5.2c2.5-0.1,5.3,2.5,5.3,4.9
			C169.4,137.7,166.6,140.5,164,140.5z"/>
		<path class="st2" d="M146.9,202.1c0-2.4,2-4.5,4.1-4.4c2.5,0.2,4.3,2.2,4.5,4.5c0.1,2.2-2.3,4.4-4.5,4.3
			C148.7,206.5,146.9,204.5,146.9,202.1z"/>
		<path class="st2" d="M132.7,230.8c0,2.2-1.7,4.1-3.8,4.1c-1.9-0.1-3.7-1.8-3.9-3.9c-0.1-1.9,1.8-4.1,3.6-4.1
			C130.6,226.9,132.6,228.8,132.7,230.8z"/>
		<path class="st2" d="M178.6,178.1c-0.2,2.5-1.8,4-3.8,4.1c-1.8,0-3.8-2.1-3.7-4c0.1-1.5,1.9-3.8,4-3.7
			C177,174.6,178.6,176.1,178.6,178.1z"/>
		<path class="st2" d="M117.6,318.6c0-2.2,1.2-3.6,3.2-3.6c2.2-0.1,3.9,1.6,4,3.9c0.1,2-1.5,3.7-3.5,3.8
			C119.3,322.7,117.7,320.9,117.6,318.6z"/>
		<path class="st2" d="M172.5,158.3c-1.9,0.1-3.9-1.8-4-3.7c-0.1-2.1,2.2-4,3.7-4c1.9,0.1,3.8,1.9,3.8,3.9
			C176.1,156.3,174.3,158.2,172.5,158.3z"/>
		<path class="st2" d="M156.5,184.4c0-2,1.6-3.7,3.4-3.6c1.8,0.1,3.4,1.8,3.3,3.7c-0.1,1.7-1.8,3.3-3.5,3.3
			C157.9,187.8,156.5,186.3,156.5,184.4z"/>
		<path class="st2" d="M113.1,279.7c0-1.7,1.6-3.4,3.3-3.5c1.7-0.1,3.5,1.9,3.5,3.6c0,1.7-1.7,3.3-3.4,3.4
			C114.9,283.2,113.1,281.4,113.1,279.7z"/>
		<path class="st2" d="M185,163.7c-1.8,0-3.1-1.4-3-3c0.1-1.5,1.3-2.7,2.8-2.8c1.6,0,3.5,1.7,3.5,3
			C188.2,162.5,186.8,163.7,185,163.7z"/>
		<path class="st2" d="M148.7,224.2c-0.9,0-2.1-1.1-2.1-1.9c0-0.9,1.2-2.2,2.1-2.2c1,0,2.1,1.1,2.1,2.2
			C150.7,223.1,149.5,224.2,148.7,224.2z"/>
		<path class="st2" d="M125.4,288.2c0.9-1.9,1.4-2.3,2.6-2c0.8,0.2,1.6,1,1.6,1.8c0,0.8-0.9,1.8-1.7,2.1
			C126.9,290.4,126.4,290,125.4,288.2z"/>
		<path class="st2" d="M135,326c-0.8,0.8-0.9,2.1-2.3,1.9c-0.8-0.1-1.5-1-1.6-1.8c0-0.7,0.5-1.5,1.4-1.7
			C133.7,324.1,134.3,325,135,326z"/>
		<path class="st2" d="M117.6,336.8c-1,1.6-1.6,2-2.6,1.6c-0.8-0.3-1.2-0.8-1.1-1.6c0-0.9,0.6-1.5,1.4-1.7
			C116.6,334.8,117.1,335.7,117.6,336.8z"/>
		<path class="st2" d="M116.9,347.6c0,1-0.8,1.9-1.8,1.8c-0.8,0-1.6-0.8-1.7-1.7c-0.1-1,0.7-1.8,1.8-1.7
			C116.2,346,116.8,346.6,116.9,347.6z"/>
		<path class="st2" d="M197.6,163c-0.7,0-1.7-0.9-1.7-1.6c0-0.7,0.9-1.6,1.7-1.6c0.6,0,1.5,0.9,1.6,1.5
			C199.2,162,198.3,163,197.6,163z"/>
		<path class="st2" d="M106.7,311.6c-1-0.3-2-0.6-1.9-1.8c0-0.7,0.5-1.4,1.3-1.5c0.7-0.1,1.8,0.5,2,1.4
			C108.3,310.7,107.4,311.1,106.7,311.6z"/>
		<path class="st2" d="M132.1,255.5c-1.1-0.5-1.8-1.1-1.5-2.3c0.2-0.8,0.8-1.1,1.6-1.1c0.8,0,1.4,0.6,1.5,1.3
			C134.1,254.6,133.2,255.1,132.1,255.5z"/>
		<path class="st2" d="M173.5,193.8c-0.9-0.7-1.8-1.1-1.6-2.1c0.1-0.5,0.7-1.2,1.2-1.3c1.2-0.4,1.6,0.7,2.3,1.5
			C174.7,192.6,174.2,193.1,173.5,193.8z"/>
		<path class="st2" d="M150.5,154.6c0.7,0,1.8,1,1.7,1.7c-0.1,0.7-0.6,1-1.3,1.1c-1,0-2-0.6-2-1.3
			C148.9,155.5,149.9,154.6,150.5,154.6z"/>
		<path class="st2" d="M184.8,185.6c-0.7-0.5-1.7-0.9-1.3-1.9c0.2-0.4,0.9-0.9,1.4-0.9c0.4,0,1.1,0.5,1.2,0.9
			C186.5,184.6,185.6,185,184.8,185.6z"/>
		<path class="st2" d="M165.6,201.1c0.1,0.6-0.6,1.3-1.3,1.4c-0.7,0-1.5-0.7-1.4-1.3c0.1-0.7,0.5-1.1,1.2-1.3
			C164.7,199.8,165.5,200.4,165.6,201.1z"/>
		<path class="st2" d="M206.8,186c0.6,0.5,1,1,1.6,1.5c-0.6,0.6-0.9,1.1-1.3,1.3c-0.7,0.4-1.3-0.1-1.5-0.7
			C205.1,187.1,205.9,186.7,206.8,186z"/>
		<path class="st2" d="M156.9,157.8c-0.7,0.1-1.4-0.5-1.4-1.3c0-0.6,0.6-1.4,1.1-1.2c0.5,0.2,1,0.7,1.3,1.2
			C158.2,156.9,157.5,157.7,156.9,157.8z"/>
		<path class="st2" d="M147.8,174.2c0.4,0.6,0.9,1.1,0.9,1.5c0,0.2-0.6,0.7-1,0.7c-0.3,0-0.7-0.6-0.7-0.9
			C146.9,175.2,147.3,174.8,147.8,174.2z"/>
		<path class="st2" d="M120.2,254.7c-0.3,0.3-0.6,0.6-1,0.9c-0.7-0.6-1.2-1-0.6-1.6C119.2,253.4,119.6,253.9,120.2,254.7z"/>
		<path class="st2" d="M119.8,269.3c-0.2,0.1-0.4,0.4-0.5,0.4c-0.2-0.1-0.3-0.3-0.4-0.4c0.2-0.1,0.3-0.3,0.5-0.4
			C119.5,268.9,119.6,269.1,119.8,269.3z"/>
		<path class="st2" d="M125.9,212c0-0.3,0.1-0.6,0.1-0.9c0.1,0,0.2,0.1,0.2,0.1C126.1,211.5,126,211.7,125.9,212L125.9,212z"/>
		<path class="st2" d="M176.8,301.8c0-3.9,2.4-6.2,5.5-7.9c2.6-1.4,4.9-1.5,6.4-0.4C180.6,296.2,182,295.3,176.8,301.8z"/>
		<path class="st2" d="M229.2,327.9c-1.4,0-2.3-0.8-2.3-2.1c0-1.3,0.9-2.3,2.2-2.3c1.3,0,2.5,1,2.6,2.3
			C231.7,326.9,230.6,327.9,229.2,327.9z"/>
		<path class="st2" d="M245,276.5c1.1,0,2.1,0.9,2.1,1.8c0,1-1.1,1.7-2.2,1.7c-1.1-0.1-1.7-0.7-1.7-1.8
			C243.2,277.1,243.8,276.5,245,276.5z"/>
		<path class="st2" d="M241.9,302.9c1.1,0,2.1,0.8,2.1,1.8c0,1-1.1,2.1-2.2,2.1c-1.1,0-1.9-0.9-1.9-2
			C239.9,303.7,240.7,303,241.9,302.9z"/>
		<path class="st2" d="M242.7,241.8c0,1.2-1.1,2.4-2.5,2.3c-1.3,0-2.2-0.9-2.3-2.2c0-1.4,1-2.3,2.4-2.3
			C241.7,239.6,242.7,240.5,242.7,241.8z"/>
		<path class="st2" d="M252.3,331.2c0-1.5,0.8-2.5,2.3-2.5c1.2,0,2.2,0.9,2.1,2c-0.1,1.2-1.3,2.3-2.6,2.4
			C252.9,333.2,252.3,332.6,252.3,331.2z"/>
		<path class="st2" d="M265.4,258.9c0.9,0,1.6,0.8,1.5,1.7c-0.1,0.7-0.9,1.5-1.6,1.5c-0.8,0-1.5-0.9-1.5-1.8
			C263.9,259.4,264.5,258.9,265.4,258.9z"/>
		<path class="st2" d="M281.9,317c0.7,0.1,1.2,0.7,1.2,1.5c0,0.9-0.7,1.4-1.6,1.4c-0.8,0-1.4-0.6-1.4-1.3
			C280.2,317.7,281.1,316.9,281.9,317z"/>
		<path class="st2" d="M265.3,312.2c0.2,0.6,0.4,0.9,0.4,1.1c0,0.2-0.2,0.5-0.4,0.7c-0.3-0.2-0.6-0.3-0.8-0.5
			C264.5,313.4,264.8,313,265.3,312.2z"/>
		<path class="st2" d="M251.2,350.3c-0.3,0.1-0.7,0.3-1,0.4c0,0-0.1-0.2-0.2-0.4c0.3-0.1,0.7-0.3,1-0.4
			C251.2,350,251.2,350.2,251.2,350.3z"/>
		<path class="st2" d="M250.7,262.2c-0.2,0.1-0.4,0.2-0.5,0.4c-0.1-0.2-0.2-0.4-0.2-0.5c0.2-0.1,0.4-0.1,0.6-0.2
			C250.6,261.8,250.7,262,250.7,262.2z"/>
		<path class="st2" d="M268.3,287.9c0.1,0.1,0.3,0.2,0.3,0.3c-0.1,0.2-0.2,0.3-0.3,0.4c-0.1,0-0.2-0.1-0.4-0.2
			C268,288.2,268.2,288.1,268.3,287.9z"/>
		<path class="st2" d="M223.2,68.2c-1.2,1.2-2.8,1.3-4.3,1.4c-4,0.3-8,0.5-11.9,0.6c-8.7,0.2-17.4,0.4-26.1,0.4
			c-5.6,0-11.2-0.2-16.7-0.5c-3.6-0.2-7.1-0.5-10.7-0.8c-0.4,0-0.9,0-1.2-0.2c-0.4-0.3-0.9-0.7-1-1.1c-0.1-0.2,0.5-0.8,0.9-0.9
			c0.8-0.3,1.7-0.6,2.5-0.7c2.1-0.2,4.1-0.4,6.2-0.5c14.2-0.8,28.4-0.7,42.6-0.4c5.1,0.1,10.2,0.6,15.3,0.9c1,0.1,2.1,0.3,3.1,0.5
			C222.3,67,223.1,67.1,223.2,68.2z"/>
	</g>
</g>
<g>
	<path class="st0" d="M403.8,177.6v2l-20.4,4v-4.4c0-9.6-3.6-14-11-14c-6.2,0-10.6,3.4-10.6,11.4v3c0,7.8,4,14.2,17.8,26.8
		c18.8,17.4,25.2,28.8,25.2,45v6.8c0,20.6-13,31.4-32.4,31.4c-19.6,0-32.8-11.4-32.8-32v-7.2l20.4-4v9.6c0,9.4,4.4,14,12,14
		c6.4,0,11.6-3.4,11.6-13.4v-4.4c0-8.8-4-15.2-17.8-27.8c-18.8-17.4-25.2-28.8-25.2-44V177c0-20.6,12-31.4,31.6-31.4
		S403.8,157,403.8,177.6z"/>
	<path class="st0" d="M439.6,167.2v39.6h31l-2,19.6h-29V268H478v19.6h-59.6v-140H478v19.6H439.6z"/>
	<path class="st0" d="M530.4,167.6v120h-21.2v-120h-22.6v-20H553v20H530.4z"/>
	<path class="st0" d="M634.4,287.6h-21.2v-63.4l-29.4-76.6h22.4l17.8,51.6h0.4l17-51.6h22l-29,76.8V287.6z"/>
	<path class="st0" d="M736.6,181v73.2c0,22-13,35.4-34.2,35.4c-21.2,0-34.2-13.4-34.2-35.4V181c0-22,13-35.4,34.2-35.4
		C723.6,145.6,736.6,159,736.6,181z M689.4,181.2V254c0,10.4,4.6,16,13,16c8.4,0,13-5.6,13-16v-72.8c0-10.4-4.6-16-13-16
		C694,165.2,689.4,170.8,689.4,181.2z"/>
	<path class="st0" d="M821.6,256.2c0,22-12.6,33.4-33,33.4c-20,0-32.6-11.4-32.6-33.4V147.6h20.4v108c0,10.2,4.6,14,12,14
		c7.4,0,12-3.8,12-14v-108h21.2V256.2z"/>
	<path class="st0" d="M872.2,228.4h-9.8v59.2h-21.2v-140h30.6c22.8,0,35.2,12.4,35.2,35.4v10c0,14.8-5.2,25.2-15,30.8l19.4,63.8H889
		L872.2,228.4z M862.4,208.8h8.6c10.2,0,14.8-5.4,14.8-17.2v-7.2c0-11.8-4.6-17.2-14.8-17.2h-8.6V208.8z"/>
	<path class="st0" d="M992.4,147.6c22.8,0,35.2,12.4,35.2,35.4v11.2c0,23-12.4,35.4-35.2,35.4H983v58h-21.2v-140H992.4z M983,210
		h8.6c10.2,0,14.8-5.4,14.8-17.2v-8.4c0-11.8-4.6-17.2-14.8-17.2H983V210z"/>
	<path class="st0" d="M1110.4,181v73.2c0,22-13,35.4-34.2,35.4c-21.2,0-34.2-13.4-34.2-35.4V181c0-22,13-35.4,34.2-35.4
		C1097.4,145.6,1110.4,159,1110.4,181z M1063.2,181.2V254c0,10.4,4.6,16,13,16c8.4,0,13-5.6,13-16v-72.8c0-10.4-4.6-16-13-16
		C1067.8,165.2,1063.2,170.8,1063.2,181.2z"/>
	<path class="st0" d="M1188.6,177.6v2l-20.4,4v-4.4c0-9.6-3.6-14-11-14c-6.2,0-10.6,3.4-10.6,11.4v3c0,7.8,4,14.2,17.8,26.8
		c18.8,17.4,25.2,28.8,25.2,45v6.8c0,20.6-13,31.4-32.4,31.4c-19.6,0-32.8-11.4-32.8-32v-7.2l20.4-4v9.6c0,9.4,4.4,14,12,14
		c6.4,0,11.6-3.4,11.6-13.4v-4.4c0-8.8-4-15.2-17.8-27.8c-18.8-17.4-25.2-28.8-25.2-44V177c0-20.6,12-31.4,31.6-31.4
		S1188.6,157,1188.6,177.6z"/>
	<path class="st0" d="M1203.2,287.6v-138l21.2-2v140H1203.2z"/>
	<path class="st0" d="M1281.6,167.6v120h-21.2v-120h-22.6v-20h66.4v20H1281.6z"/>
	<path class="st0" d="M1317.6,287.6v-138l21.2-2v140H1317.6z"/>
	<path class="st0" d="M1427.8,181v73.2c0,22-13,35.4-34.2,35.4c-21.2,0-34.2-13.4-34.2-35.4V181c0-22,13-35.4,34.2-35.4
		C1414.8,145.6,1427.8,159,1427.8,181z M1380.6,181.2V254c0,10.4,4.6,16,13,16c8.4,0,13-5.6,13-16v-72.8c0-10.4-4.6-16-13-16
		C1385.2,165.2,1380.6,170.8,1380.6,181.2z"/>
	<path class="st0" d="M1496.6,287.6l-27.8-92.8h-0.4v92.8h-20v-140h23.6l25,83.4h0.4v-83.4h20v140H1496.6z"/>
</g>
<image style="overflow:visible;" width="1845" height="140" xlink:href="87091DAC.jpg"  transform="matrix(1 0 0 1 -7976 -7976)">
</image>
<path class="st3" d="M34.1,29.6c-3.9,0-7,3.1-7,7v372.9c0,3.9,3.1,7,7,7h1501.5c3.9,0,7-3.1,7-7V36.6c0-3.9-3.1-7-7-7H34.1z"/>
<g>
	<path d="M1535.6,429.5H34.1c-11,0-20-9-20-20V36.6c0-11,9-20,20-20h1501.5c11,0,20,9,20,20v372.9
		C1555.6,420.5,1546.6,429.5,1535.6,429.5z M34.1,22.6c-7.7,0-14,6.3-14,14v372.9c0,7.7,6.3,14,14,14h1501.5c7.7,0,14-6.3,14-14
		V36.6c0-7.7-6.3-14-14-14H34.1z"/>
</g>
<g>
	<path class="st2" d="M1535.6,16.6c11,0,20,9,20,20v372.9c0,11-9,20-20,20H34.1c-11,0-20-9-20-20V36.6c0-11,9-20,20-20H1535.6
		 M1535.6,14.6H34.1c-12.1,0-22,9.9-22,22v372.9c0,12.1,9.9,22,22,22h1501.5c12.1,0,22-9.9,22-22V36.6
		C1557.6,24.5,1547.7,14.6,1535.6,14.6L1535.6,14.6z"/>
</g>
</svg>
