<?xml version="1.0" encoding="utf-8"?>
<!-- Generator: Adobe Illustrator 25.4.1, SVG Export Plug-In . SVG Version: 6.00 Build 0)  -->
<svg version="1.1" id="Layer_1" xmlns="http://www.w3.org/2000/svg" xmlns:xlink="http://www.w3.org/1999/xlink" x="0px" y="0px"
	 viewBox="0 0 432 432" style="enable-background:new 0 0 432 432;" xml:space="preserve">
<style type="text/css">
	.st0{fill:#FFFFFF;}
</style>
<path class="st0" d="M159.4,41.6c-2.9-1.3-5.7-2.7-8.2-4.9c-7-6.1-8.4-19-1.4-26.9c3.9-4.4,8.8-7,14.8-7c11.8,0,23.6,0,35.5,0
	c21.6,0,43.2,0.1,64.9,0c6.7,0,12,2.4,16.3,7.3c3.8,4.3,5.1,9.4,4.3,15.1c-0.4,3-1.2,5.8-2.9,8.3c-2.2,3.3-5.3,5.5-8.8,7.1
	c-0.8,0.3-1.5,0.7-2.4,1c0,1,0,2,0,2.9c0,20.9,0,41.8-0.1,62.6c0,7.7,2,14.5,6.1,21.1c6.3,10.1,12.3,20.4,18.4,30.6
	c5.5,9.2,11.1,18.4,16.6,27.6c4.5,7.5,8.8,15,13.3,22.5c5.5,9.2,11,18.4,16.5,27.6c5.7,9.5,11.3,19,16.9,28.5
	c5.7,9.5,11.3,19,17,28.5c7.8,13.1,15.5,26.1,23.3,39.2c3.5,5.8,7,11.7,10.5,17.5c3.5,5.9,6.6,11.9,8,18.6c3,14.4,0,27.4-9.9,38.5
	c-7.3,8.3-16.9,12.7-27.3,15.4c-4.7,1.2-9.6,1.7-14.5,2.1c-8.2,0.5-16.3,1.2-24.5,1.7c-0.3,0-0.6,0-1,0c-6.6,0.3-13.2,0.5-19.8,0.8
	c-6.3,0.2-12.5,0.4-18.8,0.7c-10.6,0.4-21.3,0.8-31.9,1.3c-21.4,1-42.8,0.5-64.2,0.6c-13.8,0.1-27.7,0-41.5-0.2
	c-6.7-0.1-13.4-0.4-20.1-0.7c-10.5-0.4-21-0.8-31.6-1.2c-4.8-0.2-9.5-0.7-14.3-1c-0.4,0-0.9,0-1.3-0.1c-9.2-0.5-18.5-0.8-27.7-1.5
	c-7.3-0.6-14.6-1-21.7-3.1c-8.2-2.4-15.7-6.1-21.9-11.9c-6.7-6.2-11.2-13.9-12.9-23c-2.2-12.2,0-23.7,6.3-34.3
	c5.9-10,11.9-19.9,17.9-29.8c6.6-11,13.2-22.1,19.8-33.1c7.6-12.8,15.2-25.5,22.8-38.3c10.2-17.2,20.5-34.3,30.7-51.5
	c5.9-9.9,11.6-19.8,17.5-29.6c5.7-9.6,11.5-19.1,17.3-28.7c3.1-5.2,6.3-10.4,9.5-15.5c2.8-4.5,4.2-9.4,4.7-14.7
	c0.9-9.1,0.3-18.3,0.4-27.4c0-13.8-0.2-27.7-0.4-41.5C159.5,42.5,159.5,42,159.4,41.6z M215.6,16.3
	C215.6,16.3,215.6,16.3,215.6,16.3c-15.3,0-30.7,0-46,0c-0.9,0-1.7-0.1-2.6,0c-1.9,0.3-3.8,0.6-5,2.4c-2.1,3.1-1.2,7.2,2.1,9
	c1.7,1,3.5,1.3,5.5,1.3c4.5,0,7.1,2.6,7.1,7.2c0,4.4,0,8.7,0,13.1c0,19.5,0,39,0,58.5c0,4.5-0.5,8.9-2,13.2c-1.2,3.6-3,7-5,10.3
	c-5.5,8.9-10.7,18.1-16.1,27.1c-6.8,11.5-13.7,23-20.5,34.5c-4.5,7.7-9,15.4-13.6,23.1c-7.6,12.7-15.2,25.3-22.8,38
	c-6.4,10.7-12.7,21.4-19,32.1c-7.6,12.8-15.2,25.6-22.8,38.3c-6.6,11-13.2,22.1-19.8,33.1c-1.4,2.3-2.7,4.6-3.8,7
	c-2.3,5.4-3.6,11-2.5,17c2.4,12.8,9.9,21,21.9,25.5c5.6,2.1,11.4,2.3,17.2,3c5.9,0.6,11.9,0.9,17.8,1.3c7.3,0.5,14.6,0.9,22,1.2
	c9.2,0.5,18.5,0.9,27.7,1.3c5.2,0.2,10.4,0.5,15.6,0.6c8.7,0.2,17.5,0.6,26.2,0.6c24.5,0.1,49,0.6,73.5-0.3c7.7-0.3,15.3-0.1,23-0.2
	c2.9,0,5.8,0,8.6-0.2c7.3-0.3,14.7-0.7,22-1.1c6.5-0.3,13-0.5,19.5-0.8c0.2,0,0.4,0,0.6,0c8.2-0.6,16.3-1.2,24.5-1.7
	c4.9-0.3,9.8-0.5,14.6-0.8c2.8-0.2,5.6-0.2,8.2-0.7c6.9-1.3,13.5-3.6,19.1-8.2c7.4-6.2,11.4-14.1,11.5-23.9
	c0.1-6.4-1.9-12.3-5.1-17.8c-2.5-4.3-5.2-8.5-7.7-12.8c-10.5-17.6-21-35.2-31.5-52.8c-5.2-8.8-10.5-17.5-15.8-26.2
	c-4.7-7.8-9.2-15.8-13.9-23.6c-8.7-14.7-17.6-29.3-26.3-44c-7.1-12-14.2-24-21.3-35.9c-7-11.7-14-23.3-20.9-35
	c-2.2-3.7-4.1-7.7-4.6-12.1c-0.4-3.5-0.9-7-1-10.4c-0.1-7,0.2-14,0.3-21.1c0.1-16.2,0.1-32.4,0.1-48.6c0-5.4,2.2-7.5,7.5-7.6
	c1.4,0,3-0.3,4.3-0.9c2.7-1.2,4.1-4,3.6-6.8c-0.5-2.6-2.7-4.7-5.5-5c-0.7-0.1-1.5,0-2.2,0C246.7,16.3,231.1,16.3,215.6,16.3z"/>
<path class="st0" d="M316.9,250.1c2.8,4.7,5.5,9.2,8.1,13.7c6.7,11.3,13.5,22.6,20.2,34c10.8,18.2,21.6,36.4,32.4,54.5
	c2.1,3.6,4.3,7.1,6.5,10.6c2.4,3.8,3.8,7.9,3.9,12.3c0.1,6.7-2.4,12.4-7.7,16.8c-4.2,3.4-8.9,5.2-14.3,5.4
	c-6.3,0.3-12.5,0.8-18.8,1.2c-7.5,0.5-15.1,0.9-22.6,1.3c-9.9,0.5-19.8,0.9-29.6,1.3c-5.8,0.2-11.7,0.5-17.5,0.6
	c-10,0.3-20,0.5-30,0.6c-19.3,0.2-38.5,0.3-57.8,0.3c-10.5,0-21.1-0.3-31.6-0.6c-6-0.1-11.9-0.3-17.9-0.6
	c-9.8-0.4-19.5-0.9-29.3-1.3c-7.5-0.4-15.1-0.8-22.6-1.2c-7.1-0.4-14.2-0.7-21.3-1.3c-6.9-0.6-13.3-2.6-18.2-8
	c-4.6-5-6.3-10.9-5.2-17.7c0.7-4.1,2.3-7.6,4.6-11c3.2-4.9,6.1-10,9.1-15c3.2-5.4,6.4-10.8,9.6-16.2c4.1-6.8,8.2-13.7,12.3-20.5
	c5-8.4,10-16.8,15-25.2c6.2-10.5,12.4-21,18.6-31.6c0.4-0.7,1-1.4,1.3-2.2c0.4-0.9,1-1.3,1.9-1.4c11.3-2.3,22.7-3.3,34.2-2.5
	c7.6,0.5,15.1,2,22.5,3.9c7.7,1.9,15,4.7,22.1,7.9c8.2,3.7,16.8,6.6,25.6,8.3c9.7,1.9,19.6,2.7,29.5,2.1c10.4-0.7,20.6-2.5,30.7-5.1
	c10.1-2.6,19.8-6.4,29.3-10.5C312.1,252.1,314.3,251.2,316.9,250.1z M175.4,273.1c-7.4-0.4-14.8,5.9-14.9,14.5
	c-0.1,8.1,8,14.8,15.5,14.5c6.9-0.3,14.5-5.8,14.3-14.4C190.2,280.8,184.5,272.7,175.4,273.1z M214.3,321.7c-0.6,5,3.7,11.4,11,11.5
	c4.3,0.1,10.7-3.4,10.9-10.6c0.2-5.9-3.6-11.3-10.5-11.5C218.9,310.8,214.2,315.8,214.3,321.7z M184.2,350
	c-0.4,5.2,3.8,10.6,9.6,10.6c5.7,0,10.1-3.5,10.3-10.3c0.1-5.5-3.8-9.8-9.7-10.1C189.4,340,183.8,344.1,184.2,350z"/>
<path class="st0" d="M214.3,229.9c-0.3-7.3,5.8-14.6,14.8-14.7c8.5-0.1,15.3,6.9,15.2,15.2c-0.1,9.3-7.1,14.8-15.1,14.8
	C219.8,245.1,214.1,237.5,214.3,229.9z M227.9,227.2c1.1,0,3.5-1.2,4-2.1c0.6-0.9,0.4-2-0.4-2.9c-1.3-1.2-2.7-1.5-4.3-0.8
	c-1.6,0.6-2.6,1.9-2.4,3.2C225,225.8,226.5,227.2,227.9,227.2z"/>
<path class="st0" d="M207.5,198.7c0.4,7.7-6.1,13.6-13.4,14c-6.4,0.3-13.8-6.3-13.7-13.5c0.1-8.3,6.5-14.1,13.7-14.1
	C202.1,185.1,208.1,192.6,207.5,198.7z M193.4,196.5c0.4-0.1,1.2-0.3,2-0.6c1-0.5,1.7-1.3,1.7-2.5c-0.1-1.2-1-2.4-2.4-2.6
	c-0.9-0.1-1.9-0.1-2.8,0.2c-1.6,0.5-2.4,1.8-2.2,3.1C190.1,195.5,191.4,196.5,193.4,196.5z"/>
<path class="st0" d="M245.2,163.1c0,6.8-4.9,11.6-11.8,11.9c-6.3,0.3-12.4-4.6-12.4-12.5c0-7,5.9-12,12.3-11.9
	C240.4,150.7,245.2,155.7,245.2,163.1z M233.4,155.6c-2.1-0.1-3.5,0.9-3.7,2.6c-0.1,1.6,1.6,3.2,3.6,3.3c1.9,0.1,3.5-1.1,3.7-2.7
	C237.1,156.9,235.6,155.7,233.4,155.6z"/>
</svg>
