<?xml version="1.0" encoding="utf-8"?>
<!-- Generator: Adobe Illustrator 25.4.1, SVG Export Plug-In . SVG Version: 6.00 Build 0)  -->
<svg version="1.1" id="Layer_1" xmlns="http://www.w3.org/2000/svg" xmlns:xlink="http://www.w3.org/1999/xlink" x="0px" y="0px"
	 viewBox="0 0 432 432" style="enable-background:new 0 0 432 432;" xml:space="preserve">
<style type="text/css">
	.st0{fill:#FFFFFF;}
</style>
<path class="st0" d="M213.6,2.3c17.8-0.2,35.5,0.3,53,3.4c8.8,1.6,17.6,4.3,26.1,7.2c7.4,2.6,10.7,8.7,11.3,16.5
	c1,12.1-3,21.5-13.8,27.6c-0.9,0.5-1.5,2.3-1.5,3.5c-0.1,21.1,0.4,42.1-0.2,63.2c-0.4,12.7,2.4,23.9,8.1,35.2
	c25.4,50.8,50.2,101.9,75.2,153c6.6,13.6,13.8,27,17.7,41.7c3.6,13.3,3.2,26.1-4.4,38c-5.3,8.4-12.9,14.2-21.8,18.4
	c-14.6,6.9-30.2,10.5-46.1,13.2c-25.3,4.3-50.8,6.1-76.4,6.9c-33.5,1.1-67,0.5-100.3-3c-22.2-2.4-44.2-6.3-65.2-14.6
	c-10.4-4.1-20.1-9.4-26.9-18.7c-6.7-9.2-9-19.5-7.7-30.8c1.6-13.7,6.9-26.2,12.5-38.6c14.2-31.3,28.7-62.5,43.1-93.7
	c9-19.5,18-38.9,27-58.4c4.2-9.2,8.4-18.5,12.4-27.9c0.7-1.7,1.1-3.6,1.1-5.4c0.1-26.2,0.1-52.3,0.1-78.5c0-2.3-0.6-3.6-2.7-4.7
	c-13.2-6.5-15.3-21.3-12.1-31.9c1.7-5.4,5.4-9,10.5-11.3c8.5-3.9,17.5-6.3,26.8-7.2c18-1.8,36-3,53.9-4.4
	C213.6,1.6,213.6,1.9,213.6,2.3z M138.3,34c-1.5,2.9-1.1,6,1.1,8.2c2.7,2.6,5.8,5.5,9.3,6.5c8.6,2.6,17.5,4.5,26.4,6.1
	c6.2,1.1,12.5,1.3,18.8,1.9c0,2.3,0,4.5,0,7.3c-13.4-1-26.5-1.9-40-2.9c0,2.3,0,4.6,0,6.9c0,23.3,0.1,46.6-0.1,69.8
	c0,4.3-0.7,8.9-2.2,12.9c-2.7,7.4-6.3,14.4-9.4,21.6c-17.7,41.1-35.5,82.2-53,123.4c-7.6,17.9-14.8,36-21.5,54.2
	c-6.6,17.8-1.5,31.7,14.9,41.3c5.8,3.4,12.1,6.1,18.4,8.2c25.5,8.2,51.8,11.7,78.4,12.6c22.3,0.8,44.8,0.4,67.1,0.1
	c24-0.3,47.7-3.6,71.1-8.7c13.2-2.9,26.1-6.7,37.5-14.6c11.4-8,16.4-18.5,13.4-32.4c-2.5-11.8-8.1-22.4-13.1-33.2
	c-12-26-24.3-51.8-36.4-77.8C306,217.9,293.3,190.3,280,163c-5.5-11.3-8.9-22.5-8.5-35.2c0.7-20.2,0.2-40.3,0.1-60.5
	c0-2,0-3.9,0-6.4c-20.8,2.7-41.1,3-61.5,2.4c0-2,0-3.7,0-5.7c2,0,3.8,0,5.5,0c16.1-0.2,32.1-1.4,47.8-4.8c6.7-1.4,13.4-3.2,19-7.4
	c4-2.9,5.3-6.9,4-11.2c-23.7,9.5-48.7,10.5-73.8,10.5C187.7,44.6,162.6,43.3,138.3,34z M283.6,23.8C258.3,11.4,168,11.7,142.5,23.4
	C165,36,256.5,37.7,283.6,23.8z"/>
<path class="st0" d="M149.6,369.7c0.4-6.5,0.3-12.4,1.1-18.1c2.4-15.7,5.3-31.4,7.7-47.1c1-6.7,1.5-13.6,2.3-21
	c37,3.1,69.8-11.6,103-25c-0.1-0.4-0.1-0.8-0.2-1.2c-12.7,2.1-25.5,3.8-38.1,6.3c-12.9,2.6-25.5,6.4-38.3,9.2
	c-8.3,1.8-16.8,2.8-25.1,0.6c2.1-11.9,4.2-23.6,6.3-35.3c5.1,0,10.2,0,15.3,0c0.5-1.2,1-2.5,1.6-3.8c3.4-7.3,9.7-10.4,17.7-9
	c7,1.3,12.9,8,13.1,15.2c0.1,2.5,1,3.3,3.2,4c8,2.6,15.8,5.5,23.7,8.5c2.4,0.9,4.4,1.3,6.9,0.5c14.6-4.8,29.5-6.8,44.8-5.5
	c2.1,0.2,4.1,0.8,6.2,0.9c6.7,0.5,10.2,4.2,12.9,10.3c12.3,27.6,25.1,54.9,37.4,82.5c2.5,5.6,4.3,12,4.7,18.1
	c0.7,9.9-5.2,16.7-13.1,22c-9.1,6-19.5,8.7-30,11.1c-16.9,3.9-34.1,6.7-51.5,7.4c-19.6,0.8-39.2,2-58.8,1.7
	c-29.4-0.5-58.8-2.5-87.4-10.4c-10.1-2.8-20.1-6.2-28.2-13.4c-8-7.1-11-15.9-7.5-26c5.3-15,11.2-29.8,17-44.6
	c4.3-11,8.8-22,13.2-32.9c0.6-1.5,1.3-3,1.9-4.4c6.9,2.7,13.6,5.4,20.8,8.3c-0.6,2.2-1.3,4.6-2,7c-5.4,18.8-10.8,37.6-16.3,56.3
	c-2.4,8.2,0.1,14.3,6.9,19C129.5,366.7,139.4,368.2,149.6,369.7z M193.5,306.8c0-6-5.2-11.1-11.3-11.1c-6.2,0-11.6,5.2-11.7,11.2
	c-0.1,6.3,5.1,11.5,11.3,11.5C188.2,318.3,193.6,313,193.5,306.8z M210.5,287.1c0,0.4,0,0.7,0,1.1c9.4-0.4,18.8-0.3,28.1-1.3
	c7.7-0.8,15.4-2.8,23-4.6c1.4-0.3,3.3-2.1,3.6-3.5c0.8-4.1-1.9-6.2-5.9-5c-9.4,2.8-18.7,5.8-28.2,8.5
	C224.3,284,217.4,285.4,210.5,287.1z M198.6,324.1c-0.1,3.8,2.8,6.7,6.6,6.8c3.5,0.1,6.7-2.8,6.8-6.3c0.1-3.8-2.8-6.9-6.5-7
	C201.7,317.6,198.7,320.4,198.6,324.1z M274,277.8c6.6,0.4,12.2-1.6,17.6-3.9c3.1-1.3,6.2-3,9-4.9c3-2,3.2-4.2,1.5-6.3
	C292.9,267.6,283.7,272.6,274,277.8z M170.3,343.3c-2.8,0-5,2.2-5,5c0,2.9,2.5,5.3,5.3,5.2c2.7-0.1,4.9-2.5,4.9-5.3
	C175.4,345.5,173.2,343.3,170.3,343.3z M195.9,230.5c-2.8-0.1-5.2,2.2-5.2,4.9c0,2.7,2.3,5.1,5,5.1c2.6,0,4.9-2.2,5-4.8
	C200.9,232.9,198.7,230.6,195.9,230.5z"/>
<path class="st0" d="M230.3,180.1c-0.1,9.6-7.5,17.2-16.6,17.1c-9.5-0.1-17.1-8.1-17-18c0.1-9.1,7.6-16.5,16.6-16.3
	C223.1,163.1,230.4,170.4,230.3,180.1z M210,167.2c-3.1,0.1-6,3-6,6c0,3.3,2.9,6.1,6.2,6c3.4,0,6.4-2.8,6.4-5.9
	C216.6,170.1,213.4,167.2,210,167.2z"/>
<path class="st0" d="M135.9,268.2c-6.3-3-12.1-5.8-18-8.6c-1.5-0.7-2.1-1.7-1.3-3.5c1.5-3.1,2.7-6.3,4.2-9.4c0.3-0.7,1-1.6,1.7-1.8
	c7.2-2.6,14.5-5.1,21.7-7.6c0.2,0.4,0.5,0.7,0.7,1.1C141.9,248.1,139,257.9,135.9,268.2z"/>
<path class="st0" d="M252.7,213.6c0,6.6-4.5,11.5-10.6,11.5c-6.7,0.1-11.7-4.9-11.6-11.7c0.1-6.5,5-11.6,11.2-11.5
	C247.6,202,252.6,207.3,252.7,213.6z M239,204.1c-1.7,2.2-3.3,3.3-3.5,4.7c-0.3,2.2,1.4,4,3.6,3.6c1.3-0.2,3.2-2.1,3.2-3.3
	C242.3,207.7,240.6,206.4,239,204.1z"/>
<path class="st0" d="M264.6,85.8c0,0.3,0.1,0.8,0.1,1.4c0.2,6.3,0.2,6.5-5.9,7.3c-12.3,1.8-24.6,2.9-37.2,2.1c0-2.4,0-4.8,0-6.9
	C235.8,88.4,250,87.1,264.6,85.8z"/>
<path class="st0" d="M264.5,130.9c0,2.1,0,4.7,0,7.6c-14,3.5-28.3,3.7-42.8,4.1c0-2.6,0-5.1,0-7C235.9,134,250,132.5,264.5,130.9z"
	/>
<path class="st0" d="M227.5,119.4c0-2.6,0-4.9,0-7.3c12.2-1.4,24.4-2.8,36.9-4.2c0,2.3,0,5,0,8C252.2,118.5,240,119.4,227.5,119.4z"
	/>
<path class="st0" d="M258.8,24.9c-5.5,2.6-11.5,2.9-17.4,2.9c-17.2-0.1-34.4-0.4-51.5-0.9c-6.3-0.2-12.5-1.2-18.8-2
	c-1.5-0.2-2.9-0.9-4.4-2.1c2.7-0.3,5.3-1,8-1c8.6,0.1,17.2,0.5,25.9,0.6c13.5,0.2,27,0.3,40.6,0.5c5.9,0.1,11.8,0.4,17.8,0.6
	C258.8,23.9,258.8,24.4,258.8,24.9z"/>
</svg>
